<svg width="1200" height="700" viewBox="0 0 1200 700" fill="none" xmlns="http://www.w3.org/2000/svg">
  <defs>
    <linearGradient id="bg" x1="0" y1="0" x2="1" y2="1">
      <stop offset="0" stop-color="#111827" />
      <stop offset="0.45" stop-color="#1F2937" />
      <stop offset="1" stop-color="#7C3AED" />
    </linearGradient>
    <linearGradient id="path" x1="0" y1="0" x2="1" y2="0">
      <stop offset="0" stop-color="#FDE047" />
      <stop offset="1" stop-color="#F59E0B" />
    </linearGradient>
  </defs>
  <rect width="1200" height="700" rx="48" fill="url(#bg)" />
  <circle cx="210" cy="520" r="140" fill="#7C3AED" opacity="0.25" />
  <circle cx="980" cy="160" r="180" fill="#F59E0B" opacity="0.2" />
  <path d="M140 560 C320 420 420 480 560 360 C700 240 860 300 1060 140" stroke="url(#path)" stroke-width="18" stroke-linecap="round" />
  <circle cx="180" cy="540" r="24" fill="#FDE047" />
  <circle cx="420" cy="440" r="18" fill="#FDE047" />
  <circle cx="640" cy="320" r="22" fill="#FDE047" />
  <circle cx="860" cy="260" r="16" fill="#FDE047" />
  <rect x="280" y="160" width="300" height="160" rx="28" fill="#111827" opacity="0.8" />
  <rect x="310" y="190" width="240" height="18" rx="9" fill="#FDE047" />
  <rect x="310" y="220" width="200" height="18" rx="9" fill="#F59E0B" />
  <rect x="310" y="250" width="170" height="18" rx="9" fill="#F59E0B" />
</svg>
